<?xml version="1.0" encoding="UTF-8"?>
<svg xmlns="http://www.w3.org/2000/svg" viewBox="0 0 1200 630" width="1200" height="630">
  <defs>
    <pattern id="dots" x="0" y="0" width="40" height="40" patternUnits="userSpaceOnUse">
      <circle cx="20" cy="20" r="2" fill="#e8dcc4"/>
    </pattern>
    <filter id="hexShadow" x="-20%" y="-20%" width="140%" height="140%">
      <feDropShadow dx="0" dy="10" stdDeviation="14" flood-opacity="0.18"/>
    </filter>
  </defs>

  <rect width="1200" height="630" fill="#faf3e7"/>
  <rect width="1200" height="630" fill="url(#dots)"/>

  <g transform="translate(955, 315) scale(6.25)">
    <path d="M0 -28 L24 -14 V14 L0 28 L-24 14 V-14 Z" fill="#ffffff" stroke="#b85a30" stroke-width="2" stroke-linejoin="round" filter="url(#hexShadow)"/>
    <path d="M-20 -16 L20 -16 L20 -6 L18 -6 L18 -10 L2 -10 L2 15 L12 15 L12 19 L-12 19 L-12 15 L-2 15 L-2 -10 L-18 -10 L-18 -6 L-20 -6 Z" fill="#707a32"/>
  </g>

  <text x="80" y="305" font-family="Georgia, 'Times New Roman', serif" font-size="140" font-weight="700" fill="#b85a30">Terroir</text>
  <text x="84" y="355" font-family="Georgia, serif" font-size="28" font-style="italic" fill="#7a4a30">Carte interactive : AOP, IGP, plats r&#233;gionaux</text>
  <rect x="84" y="378" width="80" height="3" fill="#707a32"/>
</svg>
